<svg xmlns="http://www.w3.org/2000/svg" xmlns:xlink="http://www.w3.org/1999/xlink" width="500" zoomAndPan="magnify" viewBox="0 0 375 374.999991" height="500" preserveAspectRatio="xMidYMid meet" version="1.0"><defs><clipPath id="93b832ad34"><path d="M 312 104 L 372.953125 104 L 372.953125 165 L 312 165 Z M 312 104 " clip-rule="nonzero"/></clipPath><clipPath id="6c9dc80aaf"><path d="M 1.703125 0 L 164 0 L 164 213 L 1.703125 213 Z M 1.703125 0 " clip-rule="nonzero"/></clipPath></defs><path fill="#fed101" d="M 129.519531 156.753906 L 41.96875 156.773438 L 41.804688 69.6875 L 129.355469 69.671875 L 129.519531 156.753906 " fill-opacity="1" fill-rule="nonzero"/><path fill="#ffffff" d="M 123 150.285156 L 48.464844 150.300781 L 67.71875 126.988281 L 78.53125 137.527344 L 97.71875 110.835938 L 123 150.285156 " fill-opacity="1" fill-rule="nonzero"/><path fill="#ffffff" d="M 78.601562 101.890625 C 78.609375 106.4375 74.910156 110.125 70.335938 110.125 C 65.761719 110.128906 62.050781 106.441406 62.042969 101.894531 C 62.035156 97.34375 65.734375 93.65625 70.304688 93.65625 C 74.878906 93.65625 78.589844 97.34375 78.601562 101.890625 " fill-opacity="1" fill-rule="nonzero"/><path fill="#4ada85" d="M 307.3125 83.285156 L 149.621094 83.285156 L 149.621094 71.027344 L 307.3125 71.027344 L 307.3125 83.285156 " fill-opacity="1" fill-rule="nonzero"/><path fill="#000000" d="M 306.316406 103.488281 L 151.167969 103.488281 C 150.921875 103.488281 150.71875 103.285156 150.71875 103.035156 C 150.71875 102.785156 150.921875 102.582031 151.167969 102.582031 L 306.316406 102.582031 C 306.566406 102.582031 306.769531 102.785156 306.769531 103.035156 C 306.769531 103.285156 306.566406 103.488281 306.316406 103.488281 " fill-opacity="1" fill-rule="nonzero"/><path fill="#000000" d="M 151.167969 123.363281 C 150.917969 123.363281 150.714844 123.164062 150.714844 122.914062 C 150.714844 122.660156 150.917969 122.460938 151.167969 122.460938 L 305.46875 122.460938 C 305.71875 122.460938 305.921875 122.660156 305.921875 122.914062 C 305.921875 123.160156 305.71875 123.363281 305.46875 123.363281 L 151.167969 123.363281 " fill-opacity="1" fill-rule="nonzero"/><path fill="#000000" d="M 305.46875 143.238281 L 175.152344 143.171875 C 174.902344 143.171875 174.703125 142.972656 174.703125 142.71875 C 174.703125 142.472656 174.902344 142.269531 175.152344 142.269531 L 305.46875 142.335938 C 305.71875 142.335938 305.921875 142.539062 305.921875 142.789062 C 305.921875 143.039062 305.71875 143.238281 305.46875 143.238281 " fill-opacity="1" fill-rule="nonzero"/><path fill="#fed101" d="M 344.105469 38.246094 L 25.746094 38.246094 L 25.746094 7.109375 L 344.105469 7.109375 L 344.105469 38.246094 " fill-opacity="1" fill-rule="nonzero"/><path fill="#ffffff" d="M 94.113281 22.570312 C 94.113281 26.367188 91.023438 29.445312 87.210938 29.445312 C 83.398438 29.445312 80.308594 26.367188 80.308594 22.570312 C 80.308594 18.773438 83.398438 15.699219 87.210938 15.699219 C 91.023438 15.699219 94.113281 18.773438 94.113281 22.570312 " fill-opacity="1" fill-rule="nonzero"/><path fill="#ffffff" d="M 71.410156 22.570312 C 71.410156 26.367188 68.320312 29.445312 64.507812 29.445312 C 60.695312 29.445312 57.605469 26.367188 57.605469 22.570312 C 57.605469 18.773438 60.695312 15.699219 64.507812 15.699219 C 68.320312 15.699219 71.410156 18.773438 71.410156 22.570312 " fill-opacity="1" fill-rule="nonzero"/><path fill="#ffffff" d="M 48.710938 22.570312 C 48.710938 26.367188 45.617188 29.445312 41.804688 29.445312 C 37.992188 29.445312 34.902344 26.367188 34.902344 22.570312 C 34.902344 18.773438 37.992188 15.699219 41.804688 15.699219 C 45.617188 15.699219 48.710938 18.773438 48.710938 22.570312 " fill-opacity="1" fill-rule="nonzero"/><path fill="#000000" d="M 275.234375 221.011719 L 25.742188 221.011719 C 25.496094 221.011719 25.292969 220.808594 25.292969 220.558594 L 25.292969 7.113281 C 25.292969 6.863281 25.496094 6.660156 25.742188 6.660156 L 344.101562 6.660156 C 344.355469 6.660156 344.554688 6.863281 344.554688 7.113281 L 344.554688 92.863281 C 344.554688 93.113281 344.355469 93.316406 344.101562 93.316406 C 343.851562 93.316406 343.652344 93.113281 343.652344 92.863281 L 343.652344 7.5625 L 26.195312 7.5625 L 26.195312 220.105469 L 275.234375 220.105469 C 275.484375 220.105469 275.6875 220.308594 275.6875 220.558594 C 275.6875 220.808594 275.484375 221.011719 275.234375 221.011719 " fill-opacity="1" fill-rule="nonzero"/><path fill="#000000" d="M 344.101562 199.371094 L 298.882812 199.371094 C 298.632812 199.371094 298.433594 199.167969 298.433594 198.917969 C 298.433594 198.671875 298.632812 198.464844 298.882812 198.464844 L 343.648438 198.464844 L 343.648438 175.257812 C 343.648438 175.007812 343.851562 174.804688 344.101562 174.804688 C 344.351562 174.804688 344.554688 175.007812 344.554688 175.257812 L 344.554688 198.917969 C 344.554688 199.167969 344.351562 199.371094 344.101562 199.371094 " fill-opacity="1" fill-rule="nonzero"/><path fill="#8c7bff" d="M 303.441406 198.917969 C 303.441406 201.421875 301.402344 203.453125 298.882812 203.453125 C 296.371094 203.453125 294.328125 201.421875 294.328125 198.917969 C 294.328125 196.414062 296.371094 194.382812 298.882812 194.382812 C 301.402344 194.382812 303.441406 196.414062 303.441406 198.917969 " fill-opacity="1" fill-rule="nonzero"/><path fill="#8c7bff" d="M 348.660156 175.257812 C 348.660156 177.761719 346.621094 179.789062 344.105469 179.789062 C 341.589844 179.789062 339.550781 177.761719 339.550781 175.257812 C 339.550781 172.753906 341.589844 170.722656 344.105469 170.722656 C 346.621094 170.722656 348.660156 172.753906 348.660156 175.257812 " fill-opacity="1" fill-rule="nonzero"/><path fill="#8c7bff" d="M 348.660156 92.859375 C 348.660156 95.367188 346.621094 97.394531 344.105469 97.394531 C 341.589844 97.394531 339.550781 95.367188 339.550781 92.859375 C 339.550781 90.355469 341.589844 88.328125 344.105469 88.328125 C 346.621094 88.328125 348.660156 90.355469 348.660156 92.859375 " fill-opacity="1" fill-rule="nonzero"/><g clip-path="url(#93b832ad34)"><path fill="#fda4ff" d="M 352.097656 146.777344 C 340.542969 154.324219 326.117188 145.292969 327.953125 131.652344 C 328.5 127.5625 330.835938 123.875 334.300781 121.609375 C 345.855469 114.058594 360.277344 123.09375 358.445312 136.730469 C 357.894531 140.820312 355.5625 144.511719 352.097656 146.777344 Z M 370.390625 120.742188 L 364.074219 121.648438 C 363.367188 120.472656 362.570312 119.375 361.691406 118.355469 L 364.527344 112.671875 L 359.996094 109 L 354.980469 112.929688 C 353.792969 112.273438 352.546875 111.722656 351.269531 111.273438 L 350.867188 104.929688 L 345.101562 104.003906 L 342.730469 109.898438 C 341.386719 109.921875 340.035156 110.066406 338.683594 110.324219 L 335.152344 105.027344 L 329.695312 107.101562 L 330.605469 113.390625 C 329.425781 114.097656 328.324219 114.890625 327.300781 115.761719 L 321.59375 112.9375 L 317.910156 117.453125 L 321.851562 122.453125 C 321.199219 123.636719 320.644531 124.875 320.191406 126.148438 L 313.824219 126.546875 L 312.898438 132.292969 L 318.816406 134.652344 C 318.839844 135.992188 318.984375 137.339844 319.238281 138.6875 L 313.925781 142.203125 L 316.007812 147.640625 L 322.320312 146.738281 C 323.03125 147.910156 323.828125 149.011719 324.703125 150.027344 L 321.867188 155.714844 L 326.398438 159.386719 L 331.414062 155.457031 C 332.605469 156.105469 333.847656 156.660156 335.128906 157.109375 L 335.527344 163.457031 L 341.292969 164.378906 L 343.664062 158.484375 C 345.007812 158.460938 346.363281 158.316406 347.710938 158.0625 L 351.242188 163.359375 L 356.703125 161.285156 L 355.792969 154.992188 C 356.96875 154.289062 358.074219 153.492188 359.09375 152.621094 L 364.800781 155.445312 L 368.488281 150.929688 L 364.542969 145.933594 C 365.199219 144.746094 365.753906 143.511719 366.203125 142.234375 L 372.574219 141.835938 L 373.496094 136.089844 L 367.582031 133.730469 C 367.558594 132.390625 367.414062 131.042969 367.160156 129.699219 C 367.15625 129.699219 367.160156 129.699219 367.160156 129.699219 L 372.46875 126.179688 L 370.390625 120.742188 " fill-opacity="1" fill-rule="nonzero"/></g><path fill="#020202" d="M 255.074219 339.824219 L 31.011719 339.824219 L 31.011719 184.148438 L 255.074219 184.148438 L 255.074219 339.824219 " fill-opacity="1" fill-rule="nonzero"/><path fill="#ffffff" d="M 178.726562 325.929688 C 177.699219 322.316406 174 320.152344 170.328125 321.007812 L 157.96875 324.320312 L 157.773438 323.679688 C 156.597656 319.925781 152.824219 317.605469 148.929688 318.25 L 125.488281 322.113281 C 119.703125 323.183594 113.738281 322.628906 108.253906 320.511719 L 97.554688 316.378906 L 112.605469 298.214844 C 114.941406 295.394531 114.589844 291.238281 111.8125 288.847656 L 111.226562 288.34375 C 108.488281 285.984375 104.371094 286.199219 101.886719 288.824219 L 96.953125 294.050781 C 92.644531 298.609375 87.753906 302.585938 82.402344 305.871094 C 77.699219 308.757812 72.160156 312.246094 69.640625 314.164062 C 63.496094 318.828125 61.671875 324.480469 61.246094 328.523438 L 178.960938 328.523438 C 179.042969 327.671875 178.972656 326.792969 178.726562 325.929688 " fill-opacity="1" fill-rule="nonzero"/><path fill="#ffffff" d="M 244.140625 328.523438 L 11.398438 328.523438 L 11.398438 172.84375 L 244.140625 172.84375 L 244.140625 328.523438 " fill-opacity="1" fill-rule="nonzero"/><path fill="#8c7bff" d="M 244.140625 195.476562 L 11.398438 195.476562 L 11.398438 172.824219 L 244.140625 172.824219 L 244.140625 195.476562 " fill-opacity="1" fill-rule="nonzero"/><path fill="#ffffff" d="M 61.136719 184.070312 C 61.136719 186.832031 58.886719 189.070312 56.113281 189.070312 C 53.339844 189.070312 51.09375 186.832031 51.09375 184.070312 C 51.09375 181.308594 53.339844 179.070312 56.113281 179.070312 C 58.886719 179.070312 61.136719 181.308594 61.136719 184.070312 " fill-opacity="1" fill-rule="nonzero"/><path fill="#ffffff" d="M 44.621094 184.070312 C 44.621094 186.832031 42.371094 189.070312 39.597656 189.070312 C 36.824219 189.070312 34.578125 186.832031 34.578125 184.070312 C 34.578125 181.308594 36.824219 179.070312 39.597656 179.070312 C 42.371094 179.070312 44.621094 181.308594 44.621094 184.070312 " fill-opacity="1" fill-rule="nonzero"/><path fill="#ffffff" d="M 28.105469 184.070312 C 28.105469 186.832031 25.855469 189.070312 23.082031 189.070312 C 20.308594 189.070312 18.058594 186.832031 18.058594 184.070312 C 18.058594 181.308594 20.308594 179.070312 23.082031 179.070312 C 25.855469 179.070312 28.105469 181.308594 28.105469 184.070312 " fill-opacity="1" fill-rule="nonzero"/><path fill="#000000" d="M 11.851562 328.070312 L 243.6875 328.070312 L 243.6875 173.296875 L 11.851562 173.296875 Z M 244.140625 328.972656 L 11.398438 328.972656 C 11.148438 328.972656 10.945312 328.773438 10.945312 328.523438 L 10.945312 172.84375 C 10.945312 172.59375 11.148438 172.390625 11.398438 172.390625 L 244.140625 172.390625 C 244.390625 172.390625 244.59375 172.59375 244.59375 172.84375 L 244.59375 328.523438 C 244.59375 328.773438 244.390625 328.972656 244.140625 328.972656 " fill-opacity="1" fill-rule="nonzero"/><path fill="#fed101" d="M 91.117188 272.460938 L 28.828125 272.472656 L 28.714844 210.519531 L 91 210.507812 L 91.117188 272.460938 " fill-opacity="1" fill-rule="nonzero"/><path fill="#ffffff" d="M 86.476562 267.859375 L 33.449219 267.867188 L 47.148438 251.285156 L 54.84375 258.78125 L 68.496094 239.792969 L 86.476562 267.859375 " fill-opacity="1" fill-rule="nonzero"/><path fill="#ffffff" d="M 54.890625 233.425781 C 54.898438 236.664062 52.265625 239.289062 49.011719 239.289062 C 45.757812 239.289062 43.117188 236.664062 43.109375 233.429688 C 43.105469 230.195312 45.738281 227.570312 48.992188 227.570312 C 52.242188 227.570312 54.886719 230.191406 54.890625 233.425781 " fill-opacity="1" fill-rule="nonzero"/><path fill="#4ada85" d="M 223.777344 219.765625 L 104.695312 219.765625 L 104.695312 210.507812 L 223.777344 210.507812 L 223.777344 219.765625 " fill-opacity="1" fill-rule="nonzero"/><path fill="#000000" d="M 223.027344 236.152344 L 105.867188 236.152344 C 105.617188 236.152344 105.414062 235.953125 105.414062 235.703125 C 105.414062 235.453125 105.617188 235.25 105.867188 235.25 L 223.027344 235.25 C 223.277344 235.25 223.476562 235.453125 223.476562 235.703125 C 223.476562 235.953125 223.277344 236.152344 223.027344 236.152344 " fill-opacity="1" fill-rule="nonzero"/><path fill="#000000" d="M 105.867188 251.164062 C 105.617188 251.164062 105.414062 250.960938 105.414062 250.710938 C 105.414062 250.460938 105.617188 250.257812 105.867188 250.257812 L 222.386719 250.257812 C 222.636719 250.257812 222.839844 250.460938 222.839844 250.710938 C 222.839844 250.960938 222.636719 251.164062 222.386719 251.164062 L 105.867188 251.164062 " fill-opacity="1" fill-rule="nonzero"/><path fill="#000000" d="M 222.386719 266.171875 L 123.976562 266.121094 C 123.726562 266.121094 123.527344 265.917969 123.527344 265.671875 C 123.527344 265.417969 123.730469 265.21875 123.980469 265.21875 L 222.386719 265.265625 C 222.636719 265.265625 222.839844 265.46875 222.839844 265.71875 C 222.839844 265.96875 222.636719 266.171875 222.386719 266.171875 " fill-opacity="1" fill-rule="nonzero"/><path fill="#ffffff" d="M 2.027344 47.210938 C 2.027344 185.671875 82.75 212.3125 82.75 212.3125 C 82.75 212.3125 163.46875 177.253906 163.46875 47.210938 L 82.75 0.472656 L 2.027344 47.210938 " fill-opacity="1" fill-rule="nonzero"/><g clip-path="url(#6c9dc80aaf)"><path fill="#000000" d="M 2.480469 47.472656 C 2.535156 118.664062 24.371094 159.5625 42.691406 181.347656 C 61.609375 203.835938 80.761719 211.125 82.726562 211.828125 C 84.664062 210.9375 103.847656 201.707031 122.792969 178.203125 C 141.121094 155.464844 162.960938 114.335938 163.019531 47.472656 L 82.75 0.992188 Z M 82.75 212.765625 C 82.699219 212.765625 82.652344 212.757812 82.605469 212.742188 C 82.402344 212.675781 62.074219 205.769531 42.042969 181.976562 C 30.289062 168.019531 20.925781 151.058594 14.214844 131.570312 C 5.828125 107.230469 1.574219 78.84375 1.574219 47.214844 C 1.574219 47.050781 1.660156 46.90625 1.800781 46.824219 L 82.523438 0.0820312 C 82.664062 0 82.835938 0 82.976562 0.0820312 L 163.695312 46.824219 C 163.835938 46.90625 163.921875 47.050781 163.921875 47.214844 C 163.921875 76.925781 159.667969 104.117188 151.28125 128.023438 C 144.570312 147.160156 135.210938 164.246094 123.460938 178.8125 C 103.441406 203.632812 83.132812 212.640625 82.929688 212.730469 C 82.871094 212.753906 82.808594 212.765625 82.75 212.765625 " fill-opacity="1" fill-rule="nonzero"/></g><path fill="#4ada85" d="M 82.75 194.328125 C 82.75 194.328125 149.761719 165.222656 149.761719 57.265625 L 82.75 18.460938 L 82.75 194.328125 " fill-opacity="1" fill-rule="nonzero"/><path fill="#000000" d="M 82.75 194.777344 C 82.703125 194.777344 82.65625 194.769531 82.605469 194.753906 C 82.4375 194.699219 65.539062 188.957031 48.898438 169.191406 C 39.132812 157.59375 31.355469 143.507812 25.78125 127.320312 C 18.816406 107.101562 15.285156 83.53125 15.285156 57.265625 C 15.285156 57.101562 15.371094 56.953125 15.511719 56.871094 L 82.523438 18.066406 C 82.738281 17.941406 83.015625 18.015625 83.140625 18.230469 C 83.265625 18.449219 83.191406 18.726562 82.976562 18.851562 L 16.1875 57.523438 C 16.242188 116.605469 34.375 150.539062 49.589844 168.609375 C 66.070312 188.183594 82.726562 193.839844 82.890625 193.898438 C 83.128906 193.972656 83.257812 194.230469 83.179688 194.46875 C 83.117188 194.65625 82.9375 194.777344 82.75 194.777344 " fill-opacity="1" fill-rule="nonzero"/><path fill="#fed101" d="M 99.121094 63.441406 C 99.121094 59.460938 95.878906 56.226562 91.890625 56.226562 L 74.203125 56.226562 C 70.214844 56.226562 66.96875 59.460938 66.96875 63.441406 L 66.96875 99.042969 L 99.121094 99.042969 Z M 56.640625 104.195312 L 56.640625 63.441406 C 56.640625 53.777344 64.519531 45.917969 74.203125 45.917969 L 91.890625 45.917969 C 101.570312 45.917969 109.449219 53.777344 109.449219 63.441406 L 109.449219 104.195312 C 109.449219 107.042969 107.136719 109.347656 104.285156 109.347656 L 61.804688 109.347656 C 58.953125 109.347656 56.640625 107.042969 56.640625 104.195312 " fill-opacity="1" fill-rule="nonzero"/><path fill="#000000" d="M 67.421875 98.59375 L 98.667969 98.59375 L 98.667969 63.441406 C 98.667969 59.710938 95.625 56.679688 91.890625 56.679688 L 74.199219 56.679688 C 70.460938 56.679688 67.421875 59.710938 67.421875 63.441406 Z M 99.121094 99.496094 L 66.96875 99.496094 C 66.71875 99.496094 66.519531 99.292969 66.519531 99.046875 L 66.519531 63.441406 C 66.519531 59.214844 69.964844 55.773438 74.199219 55.773438 L 91.890625 55.773438 C 96.125 55.773438 99.570312 59.214844 99.570312 63.441406 L 99.570312 99.046875 C 99.570312 99.292969 99.371094 99.496094 99.121094 99.496094 Z M 74.199219 46.371094 C 64.765625 46.371094 57.089844 54.03125 57.089844 63.441406 L 57.089844 104.195312 C 57.089844 106.792969 59.207031 108.898438 61.804688 108.898438 L 104.285156 108.898438 C 106.882812 108.898438 109 106.792969 109 104.195312 L 109 63.441406 C 109 54.03125 101.324219 46.371094 91.890625 46.371094 Z M 104.285156 109.804688 L 61.804688 109.804688 C 58.707031 109.804688 56.1875 107.289062 56.1875 104.195312 L 56.1875 63.441406 C 56.1875 53.53125 64.269531 45.46875 74.199219 45.46875 L 91.890625 45.46875 C 101.820312 45.46875 109.902344 53.53125 109.902344 63.441406 L 109.902344 104.195312 C 109.902344 107.289062 107.382812 109.804688 104.285156 109.804688 " fill-opacity="1" fill-rule="nonzero"/><path fill="#fed101" d="M 123.386719 89.441406 C 123.414062 90.25 123.433594 91.0625 123.433594 91.882812 C 123.433594 120.070312 105.21875 142.917969 82.75 142.917969 C 60.277344 142.917969 42.0625 120.070312 42.0625 91.882812 C 42.0625 91.0625 42.082031 90.25 42.113281 89.441406 L 123.386719 89.441406 " fill-opacity="1" fill-rule="nonzero"/><path fill="#000000" d="M 42.546875 89.890625 C 42.527344 90.597656 42.515625 91.253906 42.515625 91.878906 C 42.515625 119.773438 60.5625 142.464844 82.75 142.464844 C 104.933594 142.464844 122.984375 119.773438 122.984375 91.878906 C 122.984375 91.25 122.972656 90.59375 122.949219 89.890625 Z M 82.75 143.371094 C 60.066406 143.371094 41.609375 120.273438 41.609375 91.878906 C 41.609375 91.117188 41.625 90.3125 41.660156 89.421875 C 41.667969 89.179688 41.867188 88.984375 42.113281 88.984375 L 123.386719 88.984375 C 123.628906 88.984375 123.828125 89.179688 123.839844 89.421875 C 123.871094 90.304688 123.886719 91.109375 123.886719 91.878906 C 123.886719 120.273438 105.433594 143.371094 82.75 143.371094 " fill-opacity="1" fill-rule="nonzero"/><path fill="#000000" d="M 74.703125 125.886719 L 78.78125 109.222656 C 76.707031 107.957031 75.320312 105.6875 75.320312 103.085938 C 75.320312 99.113281 78.550781 95.894531 82.53125 95.894531 C 86.515625 95.894531 89.742188 99.113281 89.742188 103.085938 C 89.742188 105.6875 88.355469 107.957031 86.285156 109.222656 L 90.359375 125.886719 L 74.703125 125.886719 " fill-opacity="1" fill-rule="nonzero"/><path fill="#955b50" d="M 223.359375 298.445312 L 199.160156 298.445312 L 199.160156 347.3125 L 223.359375 347.3125 L 223.359375 298.445312 " fill-opacity="1" fill-rule="nonzero"/><path fill="#020202" d="M 199.160156 309.003906 L 223.359375 318.636719 L 223.359375 298.445312 L 199.160156 298.445312 L 199.160156 309.003906 " fill-opacity="1" fill-rule="nonzero"/><path fill="#020202" d="M 223.359375 323.34375 L 199.160156 323.34375 L 199.160156 347.3125 L 223.359375 347.3125 L 223.359375 323.34375 " fill-opacity="1" fill-rule="nonzero"/><path fill="#fed101" d="M 224.78125 338.355469 L 225.152344 338.820312 C 229.40625 344.160156 229.246094 348.769531 231.476562 356.382812 L 203.054688 366.65625 L 160.539062 367.183594 L 153.273438 362.941406 L 155.730469 356.945312 L 179.242188 349.214844 L 195.410156 339.039062 L 198.746094 334.085938 L 203.230469 334.085938 L 206.996094 337.578125 L 206.996094 341.9375 C 211.25 344.472656 212.019531 345.679688 214.132812 345.679688 C 214.179688 345.664062 217.71875 346.015625 218.84375 342.652344 L 220.003906 339.191406 C 220.695312 337.121094 223.421875 336.644531 224.78125 338.355469 " fill-opacity="1" fill-rule="nonzero"/><path fill="#020202" d="M 153.273438 362.941406 L 166.539062 365.464844 L 201.691406 364.761719 L 231.476562 356.382812 L 235.761719 360.246094 L 237.558594 369.960938 L 226.097656 374.957031 C 226.097656 374.957031 217.855469 374.925781 207.394531 374.957031 L 204.863281 372.472656 L 200.941406 372.472656 L 198.382812 374.957031 C 182.03125 375.003906 164.324219 374.957031 164.324219 374.957031 L 154.808594 370.109375 L 153.273438 367.160156 L 153.273438 362.941406 " fill-opacity="1" fill-rule="nonzero"/><path fill="#000000" d="M 228.335938 333.214844 L 228.339844 333.214844 Z M 231.699219 331.390625 C 230.4375 331.390625 229.246094 332.144531 228.757812 333.378906 C 228.253906 334.648438 228.351562 339.828125 228.464844 342.660156 C 230.5 340.671875 234.132812 336.957031 234.636719 335.6875 C 234.945312 334.910156 234.933594 334.058594 234.601562 333.292969 C 234.265625 332.519531 233.644531 331.921875 232.859375 331.613281 C 232.476562 331.464844 232.085938 331.390625 231.699219 331.390625 Z M 227.660156 344.683594 L 227.609375 343.703125 C 227.5625 342.8125 227.167969 334.929688 227.917969 333.046875 C 228.742188 330.972656 231.109375 329.953125 233.191406 330.769531 C 234.203125 331.167969 234.996094 331.9375 235.429688 332.929688 C 235.859375 333.921875 235.875 335.019531 235.476562 336.023438 C 234.726562 337.90625 229.019531 343.386719 228.375 344.003906 L 227.660156 344.683594 " fill-opacity="1" fill-rule="nonzero"/><path fill="#000000" d="M 196.207031 345.046875 C 196.117188 345.046875 196.027344 345.023438 195.949219 344.96875 L 191.261719 341.746094 C 191.054688 341.605469 191.003906 341.320312 191.144531 341.117188 C 191.289062 340.910156 191.570312 340.859375 191.773438 341 L 196.460938 344.222656 C 196.667969 344.367188 196.71875 344.648438 196.578125 344.851562 C 196.492188 344.980469 196.347656 345.046875 196.207031 345.046875 " fill-opacity="1" fill-rule="nonzero"/><path fill="#000000" d="M 192.15625 347.753906 C 192.066406 347.753906 191.976562 347.726562 191.898438 347.675781 L 187.210938 344.449219 C 187.007812 344.308594 186.953125 344.027344 187.09375 343.820312 C 187.234375 343.617188 187.519531 343.566406 187.722656 343.707031 L 192.410156 346.929688 C 192.617188 347.070312 192.667969 347.351562 192.527344 347.558594 C 192.4375 347.683594 192.296875 347.753906 192.15625 347.753906 " fill-opacity="1" fill-rule="nonzero"/><path fill="#000000" d="M 188.105469 350.460938 C 188.015625 350.460938 187.925781 350.433594 187.847656 350.378906 L 183.160156 347.15625 C 182.953125 347.015625 182.902344 346.734375 183.042969 346.527344 C 183.1875 346.320312 183.46875 346.269531 183.671875 346.410156 L 188.359375 349.632812 C 188.566406 349.773438 188.621094 350.058594 188.476562 350.261719 C 188.390625 350.390625 188.246094 350.460938 188.105469 350.460938 " fill-opacity="1" fill-rule="nonzero"/><path fill="#955b50" d="M 313.308594 284.351562 L 295.503906 298.242188 L 324.984375 335.621094 L 342.789062 321.734375 L 313.308594 284.351562 " fill-opacity="1" fill-rule="nonzero"/><path fill="#020202" d="M 301.953125 306.417969 L 324.746094 298.855469 L 313.3125 284.351562 L 295.503906 298.242188 L 301.953125 306.417969 " fill-opacity="1" fill-rule="nonzero"/><path fill="#020202" d="M 328.714844 303.886719 L 310.910156 317.777344 L 324.984375 335.621094 L 342.789062 321.734375 L 328.714844 303.886719 " fill-opacity="1" fill-rule="nonzero"/><path fill="#fed101" d="M 356.039062 322.921875 C 349.558594 318.304688 346.824219 314.574219 340.164062 312.988281 L 339.582031 312.847656 C 337.453125 312.339844 335.605469 314.386719 336.34375 316.441406 L 337.578125 319.878906 C 338.777344 323.214844 335.777344 325.109375 335.75 325.148438 C 334.089844 326.445312 332.730469 325.96875 327.808594 326.585938 L 325.105469 323.15625 L 319.976562 322.71875 L 316.449219 325.472656 L 316.898438 331.417969 L 309.5625 349.042969 L 294.90625 359.195312 L 293.128906 365.421875 L 300.785156 368.671875 L 327.328125 363.578125 L 340.050781 348.453125 L 356.039062 322.921875 " fill-opacity="1" fill-rule="nonzero"/><path fill="#000000" d="M 293.675781 365.164062 L 300.835938 368.199219 L 327.085938 363.164062 L 339.6875 348.1875 L 355.433594 323.042969 C 353.714844 321.800781 352.242188 320.609375 350.929688 319.554688 C 347.457031 316.75 344.714844 314.535156 340.0625 313.425781 L 339.480469 313.289062 C 338.636719 313.085938 337.792969 313.351562 337.21875 313.992188 C 336.652344 314.628906 336.480469 315.484375 336.773438 316.285156 L 338.007812 319.722656 C 339.152344 322.917969 336.804688 324.941406 336.058594 325.484375 L 336.03125 325.503906 C 334.800781 326.464844 333.683594 326.542969 331.65625 326.683594 C 330.679688 326.75 329.460938 326.835938 327.871094 327.035156 L 327.617188 327.066406 L 324.875 323.589844 L 320.117188 323.183594 L 316.921875 325.675781 L 317.363281 331.492188 L 317.316406 331.589844 L 309.933594 349.339844 L 295.296875 359.472656 Z M 300.738281 369.140625 L 292.585938 365.679688 L 294.515625 358.914062 L 309.199219 348.746094 L 316.441406 331.34375 L 315.984375 325.261719 L 319.839844 322.25 L 325.339844 322.722656 L 328.011719 326.109375 C 329.503906 325.925781 330.65625 325.84375 331.59375 325.78125 C 333.558594 325.644531 334.457031 325.582031 335.46875 324.796875 C 335.484375 324.78125 335.503906 324.765625 335.527344 324.753906 C 336.320312 324.175781 338.066406 322.5625 337.15625 320.027344 L 335.917969 316.59375 C 335.515625 315.472656 335.753906 314.277344 336.546875 313.390625 C 337.347656 312.496094 338.523438 312.128906 339.691406 312.40625 L 340.273438 312.546875 C 345.125 313.703125 347.9375 315.972656 351.5 318.847656 C 352.886719 319.96875 354.460938 321.238281 356.304688 322.550781 L 356.652344 322.800781 L 340.398438 348.742188 L 327.574219 363.992188 L 327.414062 364.023438 L 300.738281 369.140625 " fill-opacity="1" fill-rule="nonzero"/><path fill="#020202" d="M 361.8125 323.332031 L 356.042969 322.921875 L 337.800781 347.800781 L 321.5625 362.003906 L 306.613281 365.292969 L 293.105469 365.414062 L 293.941406 369.550781 L 296.03125 372.140625 L 306.308594 374.964844 C 306.308594 374.964844 311.796875 374.003906 322.5625 371.847656 C 322.5625 371.847656 337.777344 360.796875 341.527344 357.855469 L 341.996094 354.328125 L 345.085938 351.921875 L 348.617188 352.324219 C 356.824219 345.875 363.332031 340.839844 363.332031 340.839844 L 369.25 329.875 L 361.8125 323.332031 " fill-opacity="1" fill-rule="nonzero"/><path fill="#000000" d="M 342.65625 302.453125 C 342.359375 302.453125 342.054688 302.496094 341.757812 302.585938 C 340.945312 302.824219 340.277344 303.363281 339.875 304.105469 C 339.472656 304.84375 339.386719 305.691406 339.628906 306.492188 C 340.019531 307.796875 343.308594 311.816406 345.15625 313.972656 C 345.523438 311.164062 346.078125 306.011719 345.6875 304.703125 C 345.28125 303.339844 344.019531 302.453125 342.65625 302.453125 Z M 345.78125 316.0625 L 345.132812 315.320312 C 344.542969 314.648438 339.339844 308.6875 338.761719 306.75 C 338.453125 305.714844 338.566406 304.625 339.078125 303.675781 C 339.597656 302.722656 340.457031 302.027344 341.5 301.71875 C 343.648438 301.082031 345.917969 302.304688 346.554688 304.445312 C 347.132812 306.386719 346.046875 314.203125 345.921875 315.089844 L 345.78125 316.0625 " fill-opacity="1" fill-rule="nonzero"/><path fill="#000000" d="M 315.285156 336.09375 C 315.046875 336.09375 314.847656 335.90625 314.835938 335.667969 C 314.820312 335.421875 315.011719 335.203125 315.257812 335.191406 L 320.949219 334.847656 C 321.195312 334.84375 321.410156 335.023438 321.425781 335.273438 C 321.441406 335.523438 321.25 335.734375 321 335.75 L 315.3125 336.09375 C 315.304688 336.09375 315.296875 336.09375 315.285156 336.09375 " fill-opacity="1" fill-rule="nonzero"/><path fill="#000000" d="M 313.777344 340.707031 C 313.542969 340.707031 313.339844 340.523438 313.328125 340.285156 C 313.3125 340.035156 313.5 339.820312 313.75 339.808594 L 319.441406 339.464844 C 319.691406 339.457031 319.902344 339.640625 319.917969 339.890625 C 319.933594 340.136719 319.742188 340.351562 319.492188 340.367188 L 313.804688 340.707031 C 313.796875 340.707031 313.785156 340.707031 313.777344 340.707031 " fill-opacity="1" fill-rule="nonzero"/><path fill="#000000" d="M 312.265625 345.324219 C 312.03125 345.324219 311.832031 345.140625 311.816406 344.902344 C 311.800781 344.652344 311.992188 344.4375 312.242188 344.421875 L 317.929688 344.082031 C 318.179688 344.066406 318.394531 344.253906 318.40625 344.503906 C 318.421875 344.753906 318.234375 344.96875 317.984375 344.984375 L 312.292969 345.324219 C 312.285156 345.324219 312.277344 345.324219 312.265625 345.324219 " fill-opacity="1" fill-rule="nonzero"/><path fill="#6155ff" d="M 266.542969 258.640625 L 267.203125 183.261719 L 304.671875 185.160156 C 304.671875 185.160156 304.453125 202.167969 304.378906 208.046875 C 304.210938 221.425781 299.683594 262.089844 299.683594 262.089844 L 334.257812 302.890625 L 307.691406 322.648438 L 275.03125 284.398438 C 269.445312 276.96875 266.464844 267.917969 266.542969 258.640625 " fill-opacity="1" fill-rule="nonzero"/><path fill="#6155ff" d="M 250.027344 186.957031 L 286.304688 205.171875 L 228.582031 269.4375 L 228.582031 325.71875 L 195.414062 325.71875 L 195.417969 269.859375 C 195.417969 262.378906 197.882812 255.105469 202.441406 249.152344 L 250.027344 186.957031 " fill-opacity="1" fill-rule="nonzero"/><path fill="#000000" d="M 228.582031 326.171875 L 195.417969 326.171875 C 195.296875 326.171875 195.179688 326.125 195.097656 326.039062 C 195.011719 325.957031 194.964844 325.839844 194.964844 325.71875 L 194.964844 269.859375 C 194.964844 262.324219 197.492188 254.871094 202.078125 248.878906 L 249.667969 186.683594 C 249.820312 186.488281 250.105469 186.449219 250.300781 186.601562 C 250.5 186.75 250.539062 187.035156 250.386719 187.230469 L 202.800781 249.425781 C 198.332031 255.265625 195.875 262.519531 195.875 269.859375 L 195.867188 325.269531 L 228.132812 325.269531 L 228.132812 269.4375 C 228.132812 269.328125 228.175781 269.21875 228.246094 269.136719 L 274.199219 217.972656 C 274.285156 217.875 274.410156 217.824219 274.535156 217.824219 L 280.234375 217.824219 C 280.480469 217.824219 280.683594 218.023438 280.683594 218.273438 C 280.683594 218.523438 280.480469 218.726562 280.234375 218.726562 L 274.738281 218.726562 L 229.035156 269.609375 L 229.035156 325.71875 C 229.035156 325.96875 228.835938 326.171875 228.582031 326.171875 " fill-opacity="1" fill-rule="nonzero"/><path fill="#020202" d="M 237.824219 202.890625 C 237.824219 202.890625 256.742188 198.433594 263.964844 200.082031 C 272.253906 201.980469 280.734375 208.390625 287.964844 209.421875 C 294.632812 210.375 304.382812 206.261719 304.382812 206.261719 L 304.59375 194.449219 L 246.644531 191.730469 L 237.824219 202.890625 " fill-opacity="1" fill-rule="nonzero"/><path fill="#955b50" d="M 247.667969 107.25 L 240.488281 102.914062 C 240.488281 102.914062 237.445312 106.632812 232.546875 104.683594 C 231.410156 104.234375 229.15625 103.101562 227.265625 102.125 C 225.113281 101.011719 222.824219 100.1875 220.457031 99.671875 L 217.742188 99.082031 C 216.378906 98.785156 215.492188 97.46875 215.734375 96.101562 L 215.785156 95.808594 C 216.03125 94.421875 217.34375 93.484375 218.742188 93.695312 L 227.761719 95.058594 L 227.015625 90.71875 C 226.632812 88.496094 225.636719 86.421875 224.136719 84.730469 L 218.210938 77.777344 C 217.226562 76.625 217.25 74.921875 218.265625 73.792969 L 218.441406 73.601562 L 214.890625 70.1875 C 213.882812 69.148438 213.871094 67.503906 214.867188 66.453125 C 215.847656 65.417969 217.460938 65.3125 218.566406 66.210938 L 245.757812 88.339844 L 255.355469 94.558594 L 247.667969 107.25 " fill-opacity="1" fill-rule="nonzero"/><path fill="#000000" d="M 240.492188 102.460938 C 240.570312 102.460938 240.648438 102.484375 240.722656 102.527344 L 247.515625 106.625 L 254.746094 94.699219 L 245.511719 88.71875 C 245.5 88.710938 245.484375 88.699219 245.472656 88.691406 L 218.28125 66.5625 C 217.363281 65.8125 216.007812 65.902344 215.199219 66.761719 C 214.367188 67.640625 214.375 69.007812 215.21875 69.871094 L 218.757812 73.277344 C 218.929688 73.441406 218.941406 73.722656 218.777344 73.902344 L 218.605469 74.097656 C 217.746094 75.050781 217.726562 76.503906 218.558594 77.484375 L 224.480469 84.433594 C 226.03125 86.183594 227.066406 88.332031 227.460938 90.640625 L 228.207031 94.980469 C 228.230469 95.121094 228.183594 95.269531 228.085938 95.375 C 227.984375 95.476562 227.835938 95.523438 227.691406 95.503906 L 218.675781 94.140625 C 217.527344 93.96875 216.433594 94.75 216.234375 95.886719 L 216.179688 96.179688 C 215.980469 97.308594 216.710938 98.390625 217.839844 98.636719 L 220.554688 99.230469 C 222.964844 99.753906 225.292969 100.589844 227.472656 101.71875 C 230 103.023438 231.8125 103.902344 232.714844 104.261719 C 237.257812 106.070312 240.113281 102.660156 240.140625 102.625 C 240.226562 102.519531 240.359375 102.460938 240.492188 102.460938 Z M 247.667969 107.699219 C 247.589844 107.699219 247.507812 107.679688 247.4375 107.632812 L 240.566406 103.488281 C 239.679688 104.363281 236.683594 106.8125 232.382812 105.105469 C 231.433594 104.726562 229.644531 103.859375 227.058594 102.523438 C 224.949219 101.433594 222.695312 100.617188 220.363281 100.113281 L 217.648438 99.519531 C 216.039062 99.171875 215.003906 97.632812 215.292969 96.019531 L 215.34375 95.730469 C 215.628906 94.113281 217.183594 93.003906 218.808594 93.246094 L 227.207031 94.515625 L 226.570312 90.792969 C 226.203125 88.652344 225.246094 86.660156 223.796875 85.027344 L 217.871094 78.070312 C 216.78125 76.792969 216.769531 74.914062 217.816406 73.625 L 214.582031 70.511719 C 213.386719 69.289062 213.375 67.371094 214.539062 66.136719 C 215.675781 64.941406 217.570312 64.816406 218.851562 65.859375 L 246.023438 87.972656 L 255.605469 94.179688 C 255.808594 94.3125 255.871094 94.582031 255.746094 94.792969 L 248.058594 107.480469 C 247.972656 107.621094 247.824219 107.699219 247.667969 107.699219 " fill-opacity="1" fill-rule="nonzero"/><path fill="#000000" d="M 221.144531 79.859375 C 221.113281 79.859375 221.082031 79.859375 221.050781 79.851562 L 214.132812 78.382812 C 212.605469 78.046875 211.613281 76.539062 211.925781 75.015625 C 212.21875 73.566406 213.609375 72.566406 215.078125 72.742188 L 225.324219 73.945312 C 226.214844 74.050781 227.0625 74.328125 227.84375 74.769531 C 228.0625 74.894531 228.136719 75.167969 228.015625 75.386719 C 227.894531 75.605469 227.617188 75.679688 227.398438 75.558594 C 226.722656 75.175781 225.988281 74.933594 225.21875 74.847656 L 214.976562 73.640625 C 213.960938 73.523438 213.015625 74.203125 212.8125 75.195312 C 212.597656 76.238281 213.277344 77.269531 214.320312 77.496094 L 221.238281 78.964844 C 221.484375 79.019531 221.636719 79.257812 221.585938 79.503906 C 221.542969 79.714844 221.351562 79.859375 221.144531 79.859375 " fill-opacity="1" fill-rule="nonzero"/><path fill="#000000" d="M 237.234375 90.40625 C 237.132812 90.40625 237.03125 90.371094 236.945312 90.300781 L 232.796875 86.820312 C 231.527344 85.910156 230 85.378906 228.402344 85.300781 L 219.203125 84.859375 C 217.640625 84.78125 216.414062 83.457031 216.46875 81.902344 C 216.519531 80.425781 217.71875 79.210938 219.203125 79.140625 L 228.160156 78.460938 C 230.039062 78.324219 231.804688 78.804688 234.050781 80.058594 C 234.265625 80.179688 234.347656 80.453125 234.226562 80.675781 C 234.101562 80.890625 233.828125 80.96875 233.609375 80.847656 C 231.5 79.667969 229.9375 79.238281 228.222656 79.363281 L 219.261719 80.042969 C 218.230469 80.089844 217.40625 80.921875 217.371094 81.929688 C 217.335938 82.996094 218.175781 83.902344 219.246094 83.953125 L 228.445312 84.398438 C 230.214844 84.484375 231.914062 85.078125 233.351562 86.109375 L 237.527344 89.605469 C 237.71875 89.769531 237.746094 90.054688 237.582031 90.242188 C 237.492188 90.351562 237.367188 90.40625 237.234375 90.40625 " fill-opacity="1" fill-rule="nonzero"/><path fill="#000000" d="M 231.855469 96.175781 C 231.835938 96.175781 231.808594 96.175781 231.785156 96.171875 L 227.582031 95.492188 C 227.332031 95.449219 227.167969 95.21875 227.207031 94.972656 C 227.246094 94.722656 227.472656 94.558594 227.722656 94.597656 L 231.929688 95.277344 C 232.175781 95.320312 232.34375 95.550781 232.304688 95.796875 C 232.265625 96.019531 232.074219 96.175781 231.855469 96.175781 " fill-opacity="1" fill-rule="nonzero"/><path fill="#6155ff" d="M 175.183594 85.421875 L 176.605469 97.359375 L 80.695312 108.777344 C 78.84375 108.40625 76.898438 105.539062 76.699219 103.253906 C 76.367188 99.40625 77.832031 97.632812 78.875 96.886719 L 175.183594 85.421875 " fill-opacity="1" fill-rule="nonzero"/><path fill="#6155ff" d="M 214 93.332031 C 210.183594 93.785156 206.722656 91.078125 206.269531 87.28125 C 205.816406 83.480469 208.542969 80.035156 212.363281 79.578125 C 216.183594 79.125 219.644531 81.832031 220.097656 85.636719 C 220.546875 89.429688 217.820312 92.875 214 93.332031 Z M 197.484375 61.296875 C 184.671875 62.824219 175.023438 73.039062 173.808594 85.3125 C 173.617188 87.214844 173.628906 89.164062 173.863281 91.136719 C 174.113281 93.265625 174.613281 95.308594 175.328125 97.238281 C 179.53125 108.640625 191.175781 116.105469 203.832031 114.597656 C 218.628906 112.835938 229.203125 99.476562 227.449219 84.757812 C 225.699219 70.035156 212.28125 59.535156 197.484375 61.296875 " fill-opacity="1" fill-rule="nonzero"/><path fill="#000000" d="M 201.96875 109.15625 C 201.726562 109.15625 201.527344 108.964844 201.519531 108.722656 C 201.507812 108.472656 201.699219 108.261719 201.949219 108.253906 C 202.472656 108.230469 203.007812 108.1875 203.539062 108.125 C 208.074219 107.585938 212.1875 105.625 215.441406 102.453125 C 215.625 102.277344 215.910156 102.28125 216.082031 102.460938 C 216.257812 102.640625 216.253906 102.925781 216.074219 103.101562 C 212.675781 106.410156 208.378906 108.457031 203.648438 109.023438 C 203.089844 109.085938 202.535156 109.132812 201.988281 109.15625 C 201.980469 109.15625 201.972656 109.15625 201.96875 109.15625 " fill-opacity="1" fill-rule="nonzero"/><path fill="#000000" d="M 192.089844 107.144531 C 192.019531 107.144531 191.957031 107.128906 191.890625 107.101562 C 186.40625 104.488281 182.289062 99.671875 180.59375 93.882812 C 180.523438 93.644531 180.664062 93.394531 180.902344 93.324219 C 181.140625 93.253906 181.390625 93.390625 181.460938 93.628906 C 183.082031 99.171875 187.027344 103.78125 192.285156 106.285156 C 192.507812 106.390625 192.605469 106.660156 192.496094 106.886719 C 192.417969 107.050781 192.253906 107.144531 192.089844 107.144531 " fill-opacity="1" fill-rule="nonzero"/><path fill="#000000" d="M 180.265625 86.597656 C 180.253906 86.597656 180.238281 86.597656 180.226562 86.597656 C 179.976562 86.578125 179.792969 86.359375 179.8125 86.109375 C 180.664062 76.09375 188.570312 67.957031 198.613281 66.757812 C 198.867188 66.726562 199.089844 66.90625 199.117188 67.152344 C 199.148438 67.402344 198.96875 67.628906 198.71875 67.660156 C 189.097656 68.804688 181.527344 76.59375 180.714844 86.183594 C 180.695312 86.421875 180.5 86.597656 180.265625 86.597656 " fill-opacity="1" fill-rule="nonzero"/><path fill="#000000" d="M 114.3125 100.902344 C 114.085938 100.902344 113.890625 100.734375 113.863281 100.503906 C 113.835938 100.253906 114.011719 100.03125 114.261719 100 L 163.5625 94.132812 C 163.8125 94.101562 164.039062 94.277344 164.066406 94.527344 C 164.097656 94.777344 163.917969 95 163.671875 95.03125 L 114.367188 100.898438 C 114.347656 100.898438 114.332031 100.902344 114.3125 100.902344 " fill-opacity="1" fill-rule="nonzero"/><path fill="#955b50" d="M 227.265625 102.121094 C 225.117188 101.007812 222.824219 100.1875 220.460938 99.667969 L 217.742188 99.078125 C 216.382812 98.78125 215.496094 97.464844 215.734375 96.097656 L 215.789062 95.804688 C 216.03125 94.421875 217.347656 93.480469 218.742188 93.691406 L 231.855469 95.722656 L 227.265625 102.121094 " fill-opacity="1" fill-rule="nonzero"/><path fill="#000000" d="M 227.265625 102.574219 C 227.195312 102.574219 227.125 102.558594 227.058594 102.523438 C 224.949219 101.433594 222.695312 100.617188 220.363281 100.113281 L 217.648438 99.519531 C 216.039062 99.171875 215.003906 97.632812 215.292969 96.019531 L 215.34375 95.730469 C 215.628906 94.113281 217.183594 93.003906 218.808594 93.246094 L 227.207031 94.515625 L 226.570312 90.792969 C 226.203125 88.652344 225.246094 86.660156 223.796875 85.027344 L 217.871094 78.070312 C 216.78125 76.792969 216.769531 74.914062 217.816406 73.625 L 214.582031 70.511719 C 213.386719 69.289062 213.375 67.371094 214.539062 66.136719 C 215.675781 64.941406 217.570312 64.816406 218.851562 65.859375 L 227.382812 72.800781 C 227.574219 72.957031 227.605469 73.242188 227.445312 73.4375 C 227.289062 73.628906 227.003906 73.660156 226.808594 73.5 L 218.28125 66.5625 C 217.363281 65.8125 216.007812 65.902344 215.199219 66.761719 C 214.367188 67.640625 214.375 69.007812 215.21875 69.871094 L 218.757812 73.277344 C 218.929688 73.441406 218.941406 73.722656 218.777344 73.902344 L 218.605469 74.097656 C 217.746094 75.050781 217.726562 76.503906 218.558594 77.484375 L 224.480469 84.433594 C 226.03125 86.183594 227.066406 88.332031 227.460938 90.640625 L 228.207031 94.980469 C 228.230469 95.121094 228.183594 95.269531 228.085938 95.375 C 227.984375 95.476562 227.835938 95.523438 227.691406 95.503906 L 218.675781 94.140625 C 217.527344 93.964844 216.433594 94.75 216.234375 95.886719 L 216.179688 96.179688 C 215.980469 97.308594 216.710938 98.390625 217.839844 98.636719 L 220.554688 99.230469 C 222.964844 99.753906 225.292969 100.589844 227.472656 101.71875 C 227.695312 101.835938 227.78125 102.105469 227.667969 102.328125 C 227.589844 102.484375 227.429688 102.574219 227.265625 102.574219 " fill-opacity="1" fill-rule="nonzero"/><path fill="#955b50" d="M 235.230469 88.015625 L 233.085938 86.476562 C 231.722656 85.5 230.101562 84.933594 228.421875 84.851562 L 219.222656 84.410156 C 217.902344 84.34375 216.875 83.234375 216.917969 81.917969 C 216.960938 80.664062 217.964844 79.65625 219.222656 79.59375 L 229.527344 79.097656 C 230.359375 79.058594 231.191406 79.183594 231.972656 79.46875 L 236.1875 81.007812 L 235.230469 88.015625 " fill-opacity="1" fill-rule="nonzero"/><path fill="#955b50" d="M 229.417969 84.128906 L 227.554688 82.257812 C 226.375 81.070312 224.871094 80.246094 223.226562 79.890625 L 214.226562 77.9375 C 212.933594 77.65625 212.105469 76.394531 212.371094 75.105469 C 212.621094 73.875 213.777344 73.042969 215.027344 73.191406 L 225.269531 74.394531 C 226.097656 74.492188 226.898438 74.753906 227.621094 75.164062 L 231.523438 77.375 L 229.417969 84.128906 " fill-opacity="1" fill-rule="nonzero"/><path fill="#000000" d="M 221.144531 79.859375 C 221.113281 79.859375 221.082031 79.859375 221.050781 79.851562 L 214.132812 78.382812 C 212.605469 78.046875 211.613281 76.539062 211.925781 75.015625 C 212.21875 73.566406 213.609375 72.566406 215.078125 72.742188 L 225.324219 73.945312 C 226.214844 74.050781 227.0625 74.328125 227.84375 74.769531 C 228.0625 74.894531 228.136719 75.167969 228.015625 75.386719 C 227.894531 75.605469 227.617188 75.679688 227.398438 75.558594 C 226.722656 75.175781 225.988281 74.933594 225.21875 74.847656 L 214.976562 73.640625 C 213.960938 73.523438 213.015625 74.203125 212.8125 75.195312 C 212.597656 76.238281 213.277344 77.269531 214.320312 77.496094 L 221.238281 78.964844 C 221.484375 79.019531 221.636719 79.257812 221.585938 79.503906 C 221.542969 79.714844 221.351562 79.859375 221.144531 79.859375 " fill-opacity="1" fill-rule="nonzero"/><path fill="#000000" d="M 237.234375 90.40625 C 237.132812 90.40625 237.03125 90.371094 236.945312 90.300781 L 232.796875 86.820312 C 231.527344 85.910156 230 85.378906 228.402344 85.300781 L 219.203125 84.859375 C 217.640625 84.78125 216.414062 83.457031 216.46875 81.902344 C 216.519531 80.425781 217.71875 79.210938 219.203125 79.140625 L 228.160156 78.460938 C 230.039062 78.324219 231.804688 78.804688 234.050781 80.058594 C 234.265625 80.179688 234.347656 80.453125 234.226562 80.675781 C 234.101562 80.890625 233.828125 80.96875 233.609375 80.847656 C 231.5 79.667969 229.9375 79.238281 228.222656 79.363281 L 219.261719 80.042969 C 218.230469 80.089844 217.40625 80.921875 217.371094 81.929688 C 217.335938 82.996094 218.175781 83.902344 219.246094 83.953125 L 228.445312 84.398438 C 230.214844 84.484375 231.914062 85.078125 233.351562 86.109375 L 237.527344 89.605469 C 237.71875 89.769531 237.746094 90.054688 237.582031 90.242188 C 237.492188 90.351562 237.367188 90.40625 237.234375 90.40625 " fill-opacity="1" fill-rule="nonzero"/><path fill="#000000" d="M 231.855469 96.175781 C 231.835938 96.175781 231.808594 96.175781 231.785156 96.171875 L 227.582031 95.492188 C 227.332031 95.449219 227.167969 95.21875 227.207031 94.972656 C 227.246094 94.722656 227.472656 94.558594 227.722656 94.597656 L 231.929688 95.277344 C 232.175781 95.320312 232.34375 95.550781 232.304688 95.796875 C 232.265625 96.019531 232.074219 96.175781 231.855469 96.175781 " fill-opacity="1" fill-rule="nonzero"/><path fill="#fed101" d="M 237.234375 110.523438 L 277.964844 146.441406 C 277.964844 146.441406 304.28125 154.449219 303.226562 146.636719 C 302.46875 141.046875 299.027344 137.523438 294.816406 133.742188 L 253.867188 88.863281 L 237.234375 110.523438 " fill-opacity="1" fill-rule="nonzero"/><path fill="#955b50" d="M 263.207031 115.847656 C 263.207031 120.523438 267.019531 124.3125 271.722656 124.3125 C 276.421875 124.3125 280.234375 120.523438 280.234375 115.847656 C 280.234375 111.171875 276.421875 107.382812 271.722656 107.382812 C 267.019531 107.382812 263.207031 111.171875 263.207031 115.847656 " fill-opacity="1" fill-rule="nonzero"/><path fill="#955b50" d="M 280.234375 134.730469 L 268.835938 134.730469 L 268.835938 115.5625 L 280.234375 115.5625 L 280.234375 134.730469 " fill-opacity="1" fill-rule="nonzero"/><path fill="#000000" d="M 280.234375 122.695312 L 271.054688 122.695312 L 269.1875 111.890625 L 267.382812 111.691406 C 262.972656 111.207031 259.414062 107.878906 258.664062 103.527344 L 280.234375 103.527344 L 280.234375 122.695312 " fill-opacity="1" fill-rule="nonzero"/><path fill="#000000" d="M 268.835938 135.1875 C 268.585938 135.1875 268.386719 134.984375 268.386719 134.734375 L 268.386719 120.136719 C 268.386719 119.886719 268.585938 119.6875 268.835938 119.6875 C 269.085938 119.6875 269.289062 119.886719 269.289062 120.136719 L 269.289062 134.734375 C 269.289062 134.984375 269.085938 135.1875 268.835938 135.1875 " fill-opacity="1" fill-rule="nonzero"/><path fill="#000000" d="M 135.957031 183.117188 L 142.140625 180.527344 L 150.554688 201.851562 L 141.269531 207 L 135.957031 183.117188 " fill-opacity="1" fill-rule="nonzero"/><path fill="#955b50" d="M 83.128906 204.347656 L 108.621094 194.332031 L 111.035156 200.417969 L 85.542969 210.433594 C 83.933594 211.0625 82.113281 210.277344 81.476562 208.679688 L 81.363281 208.394531 C 80.730469 206.789062 81.519531 204.980469 83.128906 204.347656 " fill-opacity="1" fill-rule="nonzero"/><path fill="#955b50" d="M 104.164062 196.085938 L 117.59375 190.808594 L 128.523438 196.492188 L 123.019531 216.632812 L 113.808594 220.242188 L 104.164062 196.085938 " fill-opacity="1" fill-rule="nonzero"/><path fill="#955b50" d="M 96.480469 212.488281 L 95.191406 209.246094 L 101.308594 206.847656 L 102.773438 210.53125 L 112.28125 206.796875 L 114.695312 212.878906 L 105.636719 216.4375 C 102.011719 217.863281 97.910156 216.09375 96.480469 212.488281 " fill-opacity="1" fill-rule="nonzero"/><path fill="#955b50" d="M 102.929688 217.714844 L 101.410156 213.824219 L 107.527344 211.421875 L 108.992188 215.105469 L 118.5 211.371094 L 120.914062 217.457031 L 111.21875 221.300781 C 107.933594 222.605469 104.210938 220.992188 102.929688 217.714844 " fill-opacity="1" fill-rule="nonzero"/><path fill="#955b50" d="M 150.554688 201.851562 L 142.140625 180.527344 L 117.597656 190.804688 L 123.019531 216.632812 L 150.554688 201.851562 " fill-opacity="1" fill-rule="nonzero"/><path fill="#955b50" d="M 119.828125 197.804688 L 112.394531 201.851562 C 112.394531 201.851562 109.199219 190.984375 108.367188 188.351562 C 108.277344 187.90625 106.980469 185.199219 107.703125 180.785156 C 107.742188 180.695312 107.984375 176.546875 112.183594 175.238281 L 112.292969 175.203125 C 114.050781 174.65625 115.777344 176.144531 115.472656 177.953125 C 115.113281 180.089844 114.71875 181.625 115.457031 183.953125 L 119.828125 197.804688 " fill-opacity="1" fill-rule="nonzero"/><path fill="#955b50" d="M 91.746094 207.871094 L 109.75 200.796875 L 112.167969 206.878906 L 98.632812 212.195312 C 96.164062 213.167969 93.371094 211.960938 92.394531 209.503906 L 91.746094 207.871094 " fill-opacity="1" fill-rule="nonzero"/><path fill="#000000" d="M 108.832031 222.222656 C 107.914062 222.222656 106.996094 222.035156 106.128906 221.660156 C 104.453125 220.9375 103.160156 219.609375 102.492188 217.921875 L 102.171875 217.113281 C 102.078125 216.878906 102.195312 216.617188 102.425781 216.527344 C 102.660156 216.429688 102.921875 216.546875 103.011719 216.777344 L 103.335938 217.589844 C 103.914062 219.054688 105.03125 220.207031 106.484375 220.832031 C 107.941406 221.453125 109.550781 221.476562 111.019531 220.894531 L 122.828125 216.21875 L 149.984375 201.644531 L 141.890625 181.121094 L 117.792969 191.21875 C 117.675781 191.265625 117.542969 191.265625 117.425781 191.210938 C 117.3125 191.15625 117.222656 191.058594 117.1875 190.9375 L 115.023438 184.089844 C 114.328125 181.882812 114.601562 180.308594 114.921875 178.484375 L 115.023438 177.882812 C 115.140625 177.191406 114.894531 176.5 114.363281 176.039062 C 113.832031 175.574219 113.105469 175.421875 112.429688 175.632812 L 112.320312 175.667969 C 109.0625 176.683594 108.332031 179.566406 108.167969 180.757812 C 108.160156 180.804688 108.15625 180.839844 108.148438 180.875 C 107.550781 184.535156 108.378906 186.964844 108.691406 187.878906 C 108.746094 188.035156 108.785156 188.15625 108.804688 188.234375 C 109.078125 189.113281 109.632812 190.9375 110.441406 193.660156 C 110.511719 193.898438 110.375 194.152344 110.136719 194.222656 C 109.898438 194.292969 109.648438 194.15625 109.574219 193.917969 C 108.761719 191.183594 108.207031 189.355469 107.933594 188.488281 C 107.929688 188.472656 107.925781 188.457031 107.921875 188.441406 C 107.914062 188.390625 107.878906 188.296875 107.835938 188.167969 C 107.503906 187.195312 106.621094 184.605469 107.257812 180.710938 C 107.261719 180.699219 107.261719 180.691406 107.265625 180.679688 L 107.269531 180.632812 C 107.457031 179.269531 108.300781 175.976562 112.046875 174.808594 L 112.160156 174.773438 C 113.140625 174.464844 114.1875 174.683594 114.957031 175.359375 C 115.726562 176.027344 116.085938 177.03125 115.917969 178.035156 L 115.8125 178.640625 C 115.488281 180.488281 115.257812 181.820312 115.886719 183.816406 L 117.898438 190.191406 L 141.964844 180.109375 C 142.078125 180.0625 142.203125 180.0625 142.316406 180.109375 C 142.425781 180.15625 142.515625 180.246094 142.558594 180.359375 L 150.972656 201.683594 C 151.058594 201.898438 150.96875 202.140625 150.765625 202.25 L 123.234375 217.03125 C 123.21875 217.039062 123.203125 217.046875 123.183594 217.050781 L 111.355469 221.738281 C 110.539062 222.058594 109.683594 222.222656 108.832031 222.222656 " fill-opacity="1" fill-rule="nonzero"/><path fill="#000000" d="M 103.0625 217.378906 C 100.089844 217.378906 97.261719 215.613281 96.082031 212.71875 C 95.988281 212.488281 96.101562 212.222656 96.332031 212.128906 C 96.5625 212.035156 96.828125 212.144531 96.921875 212.375 C 98.277344 215.707031 102.113281 217.335938 105.46875 216.019531 L 114.53125 212.460938 C 114.761719 212.371094 115.023438 212.484375 115.117188 212.714844 C 115.207031 212.949219 115.09375 213.210938 114.859375 213.300781 L 105.800781 216.863281 C 104.902344 217.214844 103.976562 217.378906 103.0625 217.378906 " fill-opacity="1" fill-rule="nonzero"/><path fill="#000000" d="M 96.871094 212.984375 C 94.777344 212.984375 92.789062 211.726562 91.972656 209.671875 L 91.367188 208.144531 C 91.277344 207.914062 91.390625 207.648438 91.621094 207.558594 C 91.855469 207.46875 92.117188 207.578125 92.207031 207.8125 L 92.8125 209.335938 C 93.695312 211.558594 96.234375 212.652344 98.46875 211.773438 L 111.566406 206.628906 C 111.796875 206.539062 112.058594 206.652344 112.152344 206.886719 C 112.242188 207.117188 112.128906 207.378906 111.894531 207.472656 L 98.800781 212.617188 C 98.167969 212.863281 97.515625 212.984375 96.871094 212.984375 " fill-opacity="1" fill-rule="nonzero"/><path fill="#000000" d="M 84.398438 211.101562 C 82.96875 211.101562 81.613281 210.246094 81.058594 208.84375 L 80.945312 208.558594 C 80.59375 207.675781 80.609375 206.707031 80.988281 205.835938 C 81.367188 204.957031 82.070312 204.277344 82.960938 203.929688 L 112.464844 192.335938 C 112.699219 192.246094 112.960938 192.359375 113.054688 192.59375 C 113.144531 192.824219 113.03125 193.085938 112.796875 193.179688 L 83.292969 204.769531 C 82.625 205.03125 82.101562 205.539062 81.816406 206.191406 C 81.535156 206.84375 81.523438 207.566406 81.785156 208.226562 L 81.898438 208.511719 C 82.441406 209.878906 84.003906 210.550781 85.378906 210.011719 L 110.058594 200.3125 C 110.292969 200.222656 110.554688 200.335938 110.644531 200.570312 C 110.738281 200.800781 110.625 201.0625 110.390625 201.15625 L 85.710938 210.851562 C 85.277344 211.023438 84.835938 211.101562 84.398438 211.101562 " fill-opacity="1" fill-rule="nonzero"/><path fill="#fed101" d="M 188.625 160.136719 L 227.140625 139.632812 C 237.296875 134.230469 248.644531 131.398438 260.167969 131.398438 L 284.253906 131.398438 C 297.597656 131.398438 304.199219 142.15625 304.199219 155.433594 L 304.199219 198.269531 L 241.183594 198.269531 L 241.183594 159.582031 L 201.601562 181.523438 C 201.074219 181.882812 200.515625 182.210938 199.917969 182.496094 L 150.984375 212.316406 L 135.402344 179.097656 L 188.625 160.136719 " fill-opacity="1" fill-rule="nonzero"/><path fill="#000000" d="M 150.984375 212.765625 C 150.941406 212.765625 150.898438 212.761719 150.855469 212.746094 C 150.730469 212.710938 150.628906 212.621094 150.574219 212.507812 L 134.992188 179.289062 C 134.9375 179.171875 134.933594 179.039062 134.984375 178.925781 C 135.035156 178.804688 135.128906 178.714844 135.25 178.671875 L 188.4375 159.71875 L 226.925781 139.234375 C 237.117188 133.8125 248.609375 130.945312 260.167969 130.945312 L 268.835938 130.945312 C 269.085938 130.945312 269.289062 131.148438 269.289062 131.398438 C 269.289062 131.648438 269.085938 131.851562 268.835938 131.851562 L 260.167969 131.851562 C 248.757812 131.851562 237.40625 134.679688 227.351562 140.035156 L 188.835938 160.53125 C 188.816406 160.542969 188.792969 160.550781 188.773438 160.558594 L 136.023438 179.355469 L 151.179688 211.664062 L 199.683594 182.109375 C 200.289062 181.816406 200.832031 181.5 201.347656 181.148438 L 240.960938 159.183594 C 241.179688 159.0625 241.457031 159.140625 241.578125 159.359375 C 241.699219 159.578125 241.617188 159.851562 241.402344 159.976562 L 201.824219 181.917969 C 201.304688 182.273438 200.722656 182.613281 200.117188 182.902344 L 151.21875 212.699219 C 151.148438 212.742188 151.070312 212.765625 150.984375 212.765625 " fill-opacity="1" fill-rule="nonzero"/><path fill="#000000" d="M 304.082031 199.363281 C 304.078125 199.363281 304.074219 199.363281 304.074219 199.363281 C 303.828125 199.359375 303.625 199.152344 303.628906 198.902344 C 303.632812 198.570312 304.148438 165.496094 303.75 154.878906 C 303.246094 141.507812 298.808594 134.347656 289.796875 132.351562 C 287.527344 131.847656 285.539062 131.847656 280.234375 131.847656 C 279.984375 131.847656 279.78125 131.644531 279.78125 131.394531 C 279.78125 131.148438 279.984375 130.945312 280.234375 130.945312 C 285.613281 130.945312 287.625 130.945312 289.992188 131.46875 C 299.472656 133.566406 304.132812 140.996094 304.652344 154.84375 C 305.054688 165.484375 304.539062 198.585938 304.535156 198.917969 C 304.53125 199.164062 304.328125 199.363281 304.082031 199.363281 " fill-opacity="1" fill-rule="nonzero"/><path fill="#ffffff" d="M 251.664062 154.863281 L 241.183594 159.578125 L 251.664062 154.863281 " fill-opacity="1" fill-rule="nonzero"/><path fill="#000000" d="M 241.183594 160.03125 C 241.011719 160.03125 240.847656 159.929688 240.769531 159.761719 C 240.667969 159.535156 240.769531 159.269531 240.996094 159.167969 L 251.476562 154.449219 C 251.707031 154.347656 251.976562 154.449219 252.078125 154.675781 C 252.179688 154.90625 252.078125 155.171875 251.847656 155.277344 L 241.367188 159.992188 C 241.308594 160.015625 241.242188 160.03125 241.183594 160.03125 " fill-opacity="1" fill-rule="nonzero"/></svg>