<svg width="330" height="407" viewBox="0 0 330 407" fill="none" xmlns="http://www.w3.org/2000/svg"><g clip-path="url(#a)"><path d="M322.766 0H7.014A7.014 7.014 0 0 0 0 7.014v391.982a7.014 7.014 0 0 0 7.014 7.014h315.752a7.014 7.014 0 0 0 7.014-7.014V7.014A7.014 7.014 0 0 0 322.766 0Z" fill="#F8FAFD"/><path d="m158.289 155.448-38.383 11.256a5.11 5.11 0 0 0-3.467 6.344l12.622 43.046a5.112 5.112 0 0 0 6.345 3.467l38.383-11.255a5.112 5.112 0 0 0 3.467-6.345l-12.622-43.045a5.113 5.113 0 0 0-6.345-3.468Z" fill="#D6D6D6"/><path d="m212.739 147.663-57.636-16.877a2.799 2.799 0 0 0-3.472 1.9l-18.269 62.392a2.798 2.798 0 0 0 1.899 3.472l57.636 16.877a2.799 2.799 0 0 0 3.472-1.899l18.27-62.393a2.799 2.799 0 0 0-1.9-3.472Z" fill="url(#b)" stroke="#fff" stroke-width="5.398" stroke-linecap="round" stroke-linejoin="round"/><path fill-rule="evenodd" clip-rule="evenodd" d="m157.574 138.207 49.545 14.507-13.293 45.398-49.545-14.508 13.293-45.397Z" fill="#CCC" stroke="#fff" stroke-width="2.257" stroke-linecap="round" stroke-linejoin="round"/><path fill-rule="evenodd" clip-rule="evenodd" d="m157.574 138.207 49.545 14.507-6.204 21.186-49.544-14.508 6.203-21.185Z" fill="#fff" stroke="#fff" stroke-width="2.257" stroke-linecap="round" stroke-linejoin="round"/><path fill-rule="evenodd" clip-rule="evenodd" d="m154.397 160.278 5.462-4.265 7.44-2.767 1.054 2.343 2.516-3.501.915-.058 2.177-2.453 12.841 23.476" fill="#CCC"/><path d="m154.397 160.278 5.462-4.265 7.44-2.767 1.054 2.343 2.516-3.501.915-.058 2.177-2.453 12.841 23.476" stroke="#fff" stroke-width="2.257" stroke-linecap="round" stroke-linejoin="round"/><path fill-rule="evenodd" clip-rule="evenodd" d="M173.961 149.577a93.128 93.128 0 0 1-.864 9.373l-2.015-1.374-3.782-4.33-.835 4.841-.895 2.453.117 3.361 7.73.976 9.105.351-2.535-9.224-1.419 1.22-2.083-3.033-2.524-4.614Z" fill="#CACACA" stroke="#fff" stroke-width="2.257" stroke-linecap="round" stroke-linejoin="round"/><path fill-rule="evenodd" clip-rule="evenodd" d="m165.617 166.85 10.461-5.09 2.153-.43 3.691-3.759 3.258-1.423 12.842 23.476" fill="#CCC"/><path d="m165.617 166.85 10.461-5.09 2.153-.43 3.691-3.759 3.258-1.423 12.842 23.476" stroke="#fff" stroke-width="2.257" stroke-linecap="round" stroke-linejoin="round"/><path fill-rule="evenodd" clip-rule="evenodd" d="m185.18 156.148 1.236 9.225-1.779 6.075 1.69 2.627a8.567 8.567 0 0 1 2.729-.921c1.702-.269 3.438-.019 5.161.019.699.015 1.416-.007 2.07-.256.166-.064.327-.141.481-.232l-3.027-.886-2.889-5.288-1.567-5.817-1.296.589-2.809-5.135Z" fill="#CACACA" stroke="#fff" stroke-width="2.257" stroke-linecap="round" stroke-linejoin="round"/><path fill-rule="evenodd" clip-rule="evenodd" d="M159.413 188.035c.242-.981-.369-2.037 2.634-2.588 3.685-.676 13.761.099 17.121-1.557 2.487-1.224-5.991-5.88-3.805-7.584.991-.773 6.545-.271 9.181-.628 2.499-.338 2.113-1.55 4.054-2.096 1.875-.527 7.479.024 8.169-.897-1.361.754-7.546.025-9.965.368-2.553.362-2.755 1.377-5.858 1.514-3.343.149-9.6-.559-11.263.045-3.483 1.266 3.469 5.682-.138 6.531-4.885 1.151-16.345-.044-21.35.321-3.459.251-3.39.951-3.913 2.14" fill="#fff"/><path d="M159.413 188.035c.242-.981-.369-2.037 2.634-2.588 3.685-.676 13.761.099 17.121-1.557 2.487-1.224-5.991-5.88-3.805-7.584.991-.773 6.545-.271 9.181-.628 2.499-.338 2.113-1.55 4.054-2.096 1.875-.527 7.479.024 8.169-.897-1.361.754-7.546.025-9.965.368-2.553.362-2.755 1.377-5.858 1.514-3.343.149-9.6-.559-11.263.045-3.483 1.266 3.469 5.682-.138 6.531-4.885 1.151-16.345-.044-21.35.321-3.459.251-3.39.951-3.913 2.14" stroke="#fff" stroke-width="2.257" stroke-linecap="round" stroke-linejoin="round"/><path d="M134.021 240.364V252h-1.034l-6.875-9.744h-.091V252h-1.063v-11.636h1.029l6.898 9.755h.09v-9.755h1.046Zm13.433 5.818c0 1.212-.216 2.267-.647 3.165-.432.894-1.027 1.587-1.784 2.079-.754.489-1.622.733-2.603.733-.981 0-1.85-.244-2.608-.733-.753-.492-1.346-1.185-1.778-2.079-.428-.898-.642-1.953-.642-3.165s.214-2.265.642-3.159c.432-.898 1.026-1.591 1.784-2.08.758-.492 1.625-.738 2.602-.738.981 0 1.849.246 2.603.738.757.489 1.352 1.182 1.784 2.08.431.894.647 1.947.647 3.159Zm-1.034 0c0-1.042-.174-1.934-.522-2.676-.349-.747-.824-1.317-1.427-1.711-.602-.393-1.286-.59-2.051-.59a3.66 3.66 0 0 0-2.045.59c-.602.394-1.08.963-1.432 1.705-.348.742-.523 1.636-.523 2.682 0 1.041.175 1.934.523 2.676.349.742.824 1.312 1.426 1.71.602.394 1.286.591 2.051.591.765 0 1.449-.197 2.051-.591.607-.394 1.084-.962 1.432-1.704.349-.747.521-1.641.517-2.682Zm10.766-5.818V252h-1.062v-11.636h1.062Zm3.894 0h1.228l4.221 10.136h.102l4.222-10.136h1.227V252h-1v-9.392h-.091L167.063 252h-.966l-3.926-9.392h-.091V252h-1v-11.636ZM175.991 252h-1.114l4.233-11.636h1.137L184.48 252h-1.114l-3.648-10.256h-.079L175.991 252Zm.801-4.46h5.773v.954h-5.773v-.954Zm17.986-3.54a4.234 4.234 0 0 0-.466-1.085 3.502 3.502 0 0 0-.761-.892 3.32 3.32 0 0 0-1.04-.603 3.776 3.776 0 0 0-1.307-.215c-.757 0-1.435.197-2.034.59-.598.394-1.072.963-1.42 1.705-.345.742-.517 1.636-.517 2.682 0 1.041.174 1.934.523 2.676.348.742.825 1.312 1.431 1.71.61.394 1.307.591 2.091.591.716 0 1.349-.159 1.898-.477a3.287 3.287 0 0 0 1.284-1.364c.311-.591.462-1.293.455-2.108l.341.108h-3.728v-.954h4.421v.954c0 .993-.201 1.851-.603 2.574a4.231 4.231 0 0 1-1.653 1.676c-.701.394-1.506.591-2.415.591-1.015 0-1.903-.244-2.665-.733-.761-.492-1.354-1.185-1.778-2.079-.42-.898-.631-1.953-.631-3.165 0-.913.122-1.737.364-2.472.242-.735.585-1.363 1.028-1.886a4.529 4.529 0 0 1 1.586-1.199 4.79 4.79 0 0 1 2.022-.42c.637 0 1.218.1 1.745.301.53.2.996.477 1.397.829.406.349.737.752.995 1.21.261.455.437.94.528 1.455h-1.091Zm4.609 8v-11.636h6.75v.954h-5.688v4.381h5.33v.954h-5.33v4.392h5.801V252h-6.863Zm-76.976 19h-1.113l4.233-11.636h1.136L130.9 271h-1.114l-3.647-10.256h-.08L122.411 271Zm.801-4.46h5.773v.954h-5.773v-.954Zm9.406-7.176 3.636 10.255h.102l3.637-10.255h1.113L136.873 271h-1.136l-4.233-11.636h1.114Zm10.3 11.636h-1.114l4.233-11.636h1.136L151.406 271h-1.113l-3.648-10.256h-.08L142.918 271Zm.801-4.46h5.772v.954h-5.772v-.954Zm11.544-7.176V271h-1.062v-11.636h1.062ZM159.157 271v-11.636h1.062v10.681h5.546V271h-6.608Zm10.551 0h-1.113l4.233-11.636h1.136L178.197 271h-1.114l-3.647-10.256h-.08L169.708 271Zm.801-4.46h5.773v.954h-5.773v-.954Zm10.482 4.46v-11.636h3.926c.758 0 1.389.132 1.892.397.508.266.889.627 1.142 1.086.254.458.381.979.381 1.562 0 .485-.081.9-.244 1.244a2.213 2.213 0 0 1-.665.836c-.28.212-.593.365-.937.46v.091c.375.026.738.159 1.09.398.353.234.642.564.87.988.227.424.341.932.341 1.523 0 .587-.131 1.112-.392 1.574-.262.458-.663.82-1.205 1.085-.538.261-1.223.392-2.057.392h-4.142Zm1.063-.955h3.079c.898 0 1.561-.198 1.989-.596.432-.398.648-.898.648-1.5 0-.443-.108-.845-.324-1.205a2.286 2.286 0 0 0-.904-.863c-.386-.212-.841-.319-1.363-.319h-3.125v4.483Zm0-5.426h2.96c.458 0 .86-.094 1.204-.284.345-.189.614-.451.807-.784.193-.333.29-.714.29-1.142 0-.617-.201-1.119-.602-1.506-.402-.39-1-.585-1.796-.585h-2.863v4.301ZM192.151 271v-11.636h1.062v10.681h5.546V271h-6.608Zm9.8 0v-11.636h6.75v.954h-5.688v4.381h5.33v.954h-5.33v4.392h5.801V271h-6.863Z" fill="#767676"/></g><defs><linearGradient id="b" x1="191.025" y1="144.67" x2="172.601" y2="204.1" gradientUnits="userSpaceOnUse"><stop stop-color="#BABABA"/><stop offset="0" stop-color="#B9B9B9"/><stop offset="1" stop-color="#D6D6D6"/></linearGradient><clipPath id="a"><path fill="#fff" d="M0 0h329.78v406.01H0z"/></clipPath></defs></svg>